<?xml version="1.0" standalone="no"?>
<!DOCTYPE svg PUBLIC "-//W3C//DTD SVG 20010904//EN"
 "http://www.w3.org/TR/2001/REC-SVG-20010904/DTD/svg10.dtd">
<svg version="1.0" xmlns="http://www.w3.org/2000/svg"
 width="768.000000pt" height="306.000000pt" viewBox="0 0 768.000000 306.000000"
 preserveAspectRatio="xMidYMid meet">

<g transform="translate(0.000000,306.000000) scale(0.100000,-0.100000)"
fill="#000000" stroke="none">
<path d="M4277 2040 c-26 -5 -77 -22 -113 -39 -163 -76 -254 -256 -254 -503 0
-258 131 -439 348 -479 75 -14 216 -6 270 16 l42 17 0 70 0 70 -39 -31 c-135
-107 -300 -71 -378 82 -96 190 -58 536 72 656 95 88 212 79 302 -23 22 -25 44
-46 47 -46 4 0 6 35 4 78 l-3 77 -55 27 c-62 31 -163 43 -243 28z"/>
<path d="M4963 2035 c-267 -58 -406 -353 -328 -693 38 -164 143 -278 291 -317
202 -52 403 36 501 221 46 86 65 172 65 289 0 280 -124 465 -336 504 -75 14
-115 13 -193 -4z m158 -87 c47 -13 101 -64 129 -118 72 -141 66 -438 -10 -592
-99 -196 -321 -181 -400 29 -41 111 -46 340 -9 476 44 165 158 245 290 205z"/>
<path d="M1085 1536 l0 -506 196 0 c217 0 268 9 352 62 140 89 217 256 217
468 0 175 -45 297 -144 387 -87 80 -112 86 -386 91 l-235 4 0 -506z m422 379
c102 -51 144 -141 151 -323 8 -229 -38 -355 -153 -414 -30 -16 -66 -22 -137
-26 l-98 -5 0 397 0 396 93 0 c80 0 100 -4 144 -25z"/>
<path d="M2136 2003 c5 -32 -21 -114 -149 -488 -85 -247 -158 -458 -162 -467
-6 -16 0 -18 58 -18 l65 0 50 148 49 147 158 0 158 0 50 -147 49 -148 109 0
109 0 -14 23 c-8 12 -90 239 -182 505 l-167 482 -93 0 -94 0 6 -37z m134 -388
c27 -81 50 -152 50 -156 0 -5 -52 -9 -115 -9 -63 0 -115 4 -115 8 0 7 89 278
106 322 8 22 16 6 74 -165z"/>
<path d="M2537 2033 c-3 -5 -8 -30 -12 -57 -8 -48 -7 -48 16 -40 13 5 69 9
124 9 l100 0 0 -458 0 -457 105 0 105 0 -3 460 -2 460 104 0 c59 0 108 -4 111
-10 13 -21 25 -8 40 42 8 28 15 53 15 55 0 7 -699 2 -703 -4z"/>
<path d="M3384 2007 c5 -28 -22 -118 -148 -485 -85 -247 -159 -460 -165 -471
-11 -20 -10 -21 57 -21 l68 0 49 150 49 150 157 0 157 0 49 -147 50 -148 106
-3 c59 -1 107 0 107 3 0 3 -5 13 -11 23 -6 9 -86 233 -177 497 l-167 480 -94
3 -93 3 6 -34z m126 -374 c29 -87 55 -164 58 -170 3 -10 -24 -13 -116 -13
l-120 0 56 170 c31 94 59 170 62 170 4 0 30 -71 60 -157z"/>
<path d="M5634 2025 c6 -17 -61 -955 -70 -979 -5 -13 4 -16 54 -16 l60 0 6 38
c3 20 12 150 21 287 9 138 20 259 24 269 5 14 43 -63 142 -288 l134 -307 35 3
34 3 131 302 c71 166 132 303 135 303 3 0 16 -127 28 -282 13 -156 25 -293 28
-305 4 -22 8 -23 115 -23 l111 0 -5 33 c-3 17 -25 245 -49 505 l-43 473 -73
-3 -73 -3 -147 -352 c-81 -194 -149 -353 -152 -353 -3 0 -59 132 -125 293 -65
160 -131 320 -147 355 l-27 62 -77 0 c-64 0 -75 -2 -70 -15z"/>
</g>
</svg>
